<svg width="32" height="32" viewBox="0 0 32 32" fill="none" xmlns="http://www.w3.org/2000/svg">
  <!-- Background circle with gradient -->
  <circle cx="16" cy="16" r="16" fill="url(#gradient)"/>
  
  <!-- Medical heart icon -->
  <path d="M16 25.5c-0.5 0-1-0.2-1.4-0.6l-6.8-6.8c-2.2-2.2-2.2-5.8 0-8s5.8-2.2 8 0l0.2 0.2 0.2-0.2c2.2-2.2 5.8-2.2 8 0s2.2 5.8 0 8l-6.8 6.8c-0.4 0.4-0.9 0.6-1.4 0.6z" fill="white"/>
  
  <!-- Medical cross -->
  <rect x="15" y="12" width="2" height="8" fill="#3B82F6" rx="1"/>
  <rect x="12" y="15" width="8" height="2" fill="#3B82F6" rx="1"/>
  
  <!-- Gradient definition -->
  <defs>
    <linearGradient id="gradient" x1="0%" y1="0%" x2="100%" y2="100%">
      <stop offset="0%" style="stop-color:#3B82F6;stop-opacity:1" />
      <stop offset="100%" style="stop-color:#1E40AF;stop-opacity:1" />
    </linearGradient>
  </defs>
</svg>
